# xmcd
#
# Track frame offsets:
#	180
#	10309
#	21682
#	30403
#	39994
#	49704
#	60466
#	73252
#	81593
#	90979
#	99974
#	110350
#	121848
#	132000
#	143430
#	156976
#	166273
#	175520
#	183417
#	194903
#	205305
#	214595
#	226202
#	236158
#	248300
#	260660
#
# Disc length: 3618 seconds
#
# Revision: 2
# Processed by: cddbd v1.4PL0 Copyright (c) Steve Scherf et al.
# Submitted via: EasyCDDAExtractor 5.0.7
#
DISCID=5d0e201a
DTITLE=Various Artist - The Philly Doo-Wop Sound, 'Lost Masters'
DYEAR=1900
DGENRE=Blues
TTITLE0=Danny and The Travelers - Ever Since You Went Away
TTITLE1=Moniques - Love So Wonderful
TTITLE2=Richie and The Royals - What Chance Have I
TTITLE3=Marvels - Baby Lou
TTITLE4=Billy and The Vanguards - Line Up Time
TTITLE5=Cymbals - I'll Never Love Again
TTITLE6=Chip and The Quartertones - He's In Love With Sandra
TTITLE7=Richie and The Royals - Oh What A Nite (ACAP)
TTITLE8=Dee Jays - Canadian Sunset
TTITLE9=Intentions - I'm In Love With A GoGo Girl
TTITLE10=Chip and The Quartertones - You Were My Baby
TTITLE11=Cymbals - Let Me Live
TTITLE12=D C and The Senators - Promise
TTITLE13=Presey and The Flip Flops - I Still Care
TTITLE14=Chip and The Quartertones - She Walked Away
TTITLE15=Richie and The Royals - Glad You're My Girl
TTITLE16=Billy and The Vanguards - That's My Desire
TTITLE17=Richie and The Royals - I Only Want You  (ACAP)
TTITLE18=Dee Jays - You Took Your Love From Me
TTITLE19=Intruders - Let's Try Again
TTITLE20=Intentions - Wonderful Girl
TTITLE21=Johnny Parker - Up The Ladder
TTITLE22=Marvels - Party Behind The Barn
TTITLE23=Chip and The Quartertones - Somon Says
TTITLE24=Four-Evers - Summertime
TTITLE25=Four-Evers - Poor Boy
EXTD=
EXTT0=
EXTT1=
EXTT2=
EXTT3=
EXTT4=
EXTT5=
EXTT6=
EXTT7=
EXTT8=
EXTT9=
EXTT10=
EXTT11=
EXTT12=
EXTT13=
EXTT14=
EXTT15=
EXTT16=
EXTT17=
EXTT18=
EXTT19=
EXTT20=
EXTT21=
EXTT22=
EXTT23=
EXTT24=
EXTT25=
PLAYORDER=
